<svg width="71" height="50" viewBox="0 0 71 50" fill="none" xmlns="http://www.w3.org/2000/svg">
<path fill-rule="evenodd" clip-rule="evenodd" d="M70.7989 0H30.6225C24.8643 0 20.1686 4.69649 20.1686 10.4539V39.9157H10.0843V30.0417H17.8571V19.9574H10.0843H9.40785C4.22627 19.9574 0 24.1837 0 29.3653V30.0417V39.9157V50H10.0843H40.1772C45.9354 50 50.6311 45.3035 50.6311 39.5461V10.0843H70.7997V0H70.7989ZM70.7989 19.9583H52.9418V30.0426H61.3919C66.5734 30.0426 70.7997 25.8163 70.7997 20.6347V19.9583H70.7989ZM35.319 39.9165H30.2529V15.3121C30.2529 12.433 32.6008 10.0843 35.4807 10.0843H40.5468V34.6887C40.5468 37.5679 38.199 39.9165 35.319 39.9165Z" fill="#0098DA"/>
</svg>
