<svg width="81" height="25" viewBox="0 0 81 25" fill="none" xmlns="http://www.w3.org/2000/svg">
<path d="M8.088 9.32006C7.336 9.32006 6.72 9.13606 6.24 8.76806C5.776 8.40006 5.456 7.94406 5.28 7.40006C5.12 6.84006 5.12 6.24006 5.28 5.60006C5.44 4.96006 5.776 4.36806 6.288 3.82406C6.816 3.26406 7.52 2.80006 8.4 2.43206C9.28 2.06406 10.368 1.88006 11.664 1.88006H26.4C26.64 1.88006 26.8 1.94406 26.88 2.07206C26.96 2.18406 26.976 2.33606 26.928 2.52806C26.88 2.72006 26.784 2.92006 26.64 3.12806C26.496 3.33606 26.32 3.53606 26.112 3.72806C25.92 3.92006 25.704 4.08006 25.464 4.20806C25.24 4.32006 25.016 4.37606 24.792 4.37606C24.584 4.37606 24.224 4.35206 23.712 4.30406C23.2 4.25606 22.592 4.19206 21.888 4.11206C21.2 4.01606 20.44 3.92006 19.608 3.82406C18.792 3.72806 17.968 3.63206 17.136 3.53606C16.864 3.90406 16.512 4.38406 16.08 4.97606C15.664 5.56806 15.224 6.20006 14.76 6.87206C14.296 7.52806 13.832 8.17606 13.368 8.81606C12.92 9.44006 12.544 9.97606 12.24 10.4241H13.536C14.064 10.4241 14.512 10.4961 14.88 10.6401C15.264 10.7841 15.544 10.9441 15.72 11.1201C15.896 11.2801 15.952 11.4321 15.888 11.5761C15.84 11.7201 15.656 11.7921 15.336 11.7921H11.328C10.608 12.8641 9.912 13.7921 9.24 14.5761C8.568 15.3601 7.888 16.0161 7.2 16.5441C6.512 17.0561 5.784 17.4401 5.016 17.6961C4.264 17.9361 3.44 18.0561 2.544 18.0561C1.6 18.0561 0.888 17.7521 0.408 17.1441C0.296 17.0001 0.24 16.8561 0.24 16.7121C0.256 16.5521 0.328 16.4721 0.456 16.4721C0.552 16.4881 0.664 16.5281 0.792 16.5921C0.936 16.6561 1.104 16.7281 1.296 16.8081C1.488 16.8721 1.696 16.9361 1.92 17.0001C2.16 17.0481 2.416 17.0721 2.688 17.0721C3.264 17.0721 3.808 16.9281 4.32 16.6401C4.848 16.3361 5.352 15.9361 5.832 15.4401C6.328 14.9281 6.816 14.3441 7.296 13.6881C7.776 13.0161 8.264 12.3041 8.76 11.5521C8.552 11.4561 8.384 11.3441 8.256 11.2161C8.144 11.0881 8.072 10.9681 8.04 10.8561C8.024 10.7281 8.056 10.6241 8.136 10.5441C8.216 10.4641 8.36 10.4241 8.568 10.4241H9.552C9.904 9.91206 10.328 9.30406 10.824 8.60006C11.336 7.89606 11.84 7.19206 12.336 6.48806C12.832 5.78406 13.288 5.14406 13.704 4.56806C14.136 3.97606 14.448 3.54406 14.64 3.27206C14.032 3.20806 13.472 3.16006 12.96 3.12806C12.448 3.09606 12.016 3.08006 11.664 3.08006C10.832 3.08006 10.136 3.18406 9.576 3.39206C9.032 3.58406 8.608 3.83206 8.304 4.13606C8.016 4.44006 7.84 4.77606 7.776 5.14406C7.728 5.49606 7.784 5.82406 7.944 6.12806C8.12 6.43206 8.392 6.68806 8.76 6.89606C9.128 7.08806 9.584 7.18406 10.128 7.18406C10.432 7.18406 10.576 7.29606 10.56 7.52006C10.544 7.74406 10.424 7.99206 10.2 8.26406C9.976 8.52006 9.672 8.76006 9.288 8.98406C8.92 9.20806 8.52 9.32006 8.088 9.32006ZM24.4348 12.0321C24.6108 11.8721 24.7788 11.7681 24.9388 11.7201C25.0988 11.6561 25.2268 11.6401 25.3228 11.6721C25.4188 11.7041 25.4588 11.7841 25.4428 11.9121C25.4428 12.0401 25.3628 12.2081 25.2028 12.4161C24.6108 13.1361 23.9788 13.7041 23.3068 14.1201C22.6348 14.5361 22.0108 14.8321 21.4348 15.0081C20.8588 15.1681 20.3628 15.2241 19.9468 15.1761C19.5468 15.1281 19.3228 15.0001 19.2748 14.7921C19.2428 14.6641 19.3068 14.4641 19.4668 14.1921C19.6428 13.9201 19.8508 13.6241 20.0908 13.3041C20.3308 12.9681 20.5788 12.6401 20.8348 12.3201C21.1068 12.0001 21.3228 11.7281 21.4828 11.5041C21.2268 11.5681 20.9148 11.7281 20.5468 11.9841C20.1948 12.2241 19.8348 12.5121 19.4668 12.8481C19.0988 13.1681 18.7388 13.5121 18.3868 13.8801C18.0508 14.2481 17.7708 14.5921 17.5468 14.9121C17.3228 15.2321 17.1148 15.5361 16.9228 15.8241C16.7308 16.0961 16.5628 16.3361 16.4188 16.5441C16.2428 16.7841 16.0908 17.0001 15.9628 17.1921C15.7708 17.4321 15.5388 17.6321 15.2668 17.7921C14.9948 17.9361 14.7468 18.0081 14.5228 18.0081H13.8268C13.6028 18.0081 13.4748 17.9281 13.4428 17.7681C13.4108 17.6081 13.4828 17.4161 13.6588 17.1921L18.4828 10.3521C18.6588 10.1121 18.8828 9.92006 19.1548 9.77606C19.4268 9.63206 19.6748 9.56006 19.8988 9.56006H20.5948C20.8188 9.56006 20.9468 9.64006 20.9788 9.80006C21.0268 9.94406 20.9628 10.1281 20.7868 10.3521L19.9468 11.4801C20.4428 11.0481 20.9308 10.6881 21.4108 10.4001C21.8908 10.0961 22.3228 9.86406 22.7068 9.70406C23.1068 9.54406 23.4428 9.45606 23.7148 9.44006C24.0028 9.42406 24.2028 9.47206 24.3148 9.58406C24.5228 9.80806 24.5308 10.1201 24.3388 10.5201C24.1468 10.9041 23.8828 11.3041 23.5468 11.7201C23.2108 12.1361 22.8748 12.5281 22.5388 12.8961C22.2028 13.2641 22.0028 13.5361 21.9388 13.7121C22.4508 13.5361 22.8908 13.3121 23.2588 13.0401C23.6428 12.7681 24.0348 12.4321 24.4348 12.0321ZM30.5753 10.0881C30.8313 10.3761 30.9753 10.7441 31.0073 11.1921C31.0393 11.6241 30.9593 12.1041 30.7673 12.6321C30.5753 13.1601 30.2873 13.7041 29.9033 14.2641C29.5193 14.8241 29.0473 15.3601 28.4873 15.8721C27.9433 16.3841 27.3753 16.8161 26.7833 17.1681C26.2073 17.5041 25.6553 17.7521 25.1273 17.9121C24.5993 18.0561 24.1113 18.1041 23.6633 18.0561C23.2153 18.0081 22.8633 17.8401 22.6073 17.5521C22.3353 17.2641 22.1833 16.9041 22.1513 16.4721C22.1353 16.0241 22.2233 15.5361 22.4153 15.0081C22.6073 14.4801 22.8873 13.9361 23.2553 13.3761C23.6393 12.8161 24.1113 12.2801 24.6713 11.7681C25.2153 11.2401 25.7753 10.8081 26.3513 10.4721C26.9433 10.1201 27.5033 9.87206 28.0312 9.72806C28.5753 9.56806 29.0633 9.52006 29.4953 9.58406C29.9433 9.63206 30.3033 9.80006 30.5753 10.0881ZM28.1513 14.3121C28.4553 13.9121 28.7113 13.5201 28.9193 13.1361C29.1273 12.7521 29.2793 12.3921 29.3753 12.0561C29.4713 11.7201 29.5033 11.4321 29.4713 11.1921C29.4553 10.9361 29.3753 10.7521 29.2313 10.6401C29.0713 10.5281 28.8633 10.4961 28.6073 10.5441C28.3673 10.5921 28.0953 10.7121 27.7913 10.9041C27.5033 11.0961 27.1913 11.3441 26.8553 11.6481C26.5353 11.9521 26.2233 12.3041 25.9193 12.7041C25.6153 13.1041 25.3593 13.4961 25.1513 13.8801C24.9593 14.2641 24.8153 14.6241 24.7193 14.9601C24.6233 15.2801 24.5833 15.5681 24.5993 15.8241C24.6313 16.0641 24.7193 16.2401 24.8633 16.3521C25.0233 16.4641 25.2233 16.4961 25.4633 16.4481C25.7193 16.4001 25.9913 16.2881 26.2793 16.1121C26.5833 15.9201 26.8953 15.6721 27.2153 15.3681C27.5353 15.0641 27.8473 14.7121 28.1513 14.3121ZM38.7092 9.60806C39.1252 9.54406 39.4692 9.56006 39.7412 9.65606C40.0132 9.75206 40.1572 9.96006 40.1732 10.2801C40.1892 10.5841 40.0452 11.0241 39.7412 11.6001C39.4532 12.1601 38.9492 12.8881 38.2292 13.7841C37.8612 14.2161 37.5892 14.5761 37.4132 14.8641C37.2532 15.1521 37.1412 15.3841 37.0772 15.5601C37.0292 15.7201 37.0212 15.8321 37.0532 15.8961C37.0852 15.9601 37.1332 16.0001 37.1972 16.0161C37.3572 16.0641 37.6212 15.9601 37.9892 15.7041C38.3732 15.4481 38.7892 15.1121 39.2372 14.6961C39.7012 14.2801 40.1652 13.8321 40.6292 13.3521C41.0932 12.8721 41.4852 12.4321 41.8052 12.0321C42.0292 11.7761 42.2132 11.6161 42.3572 11.5521C42.5172 11.4721 42.6292 11.4721 42.6932 11.5521C42.7732 11.6161 42.8052 11.7281 42.7892 11.8881C42.7732 12.0481 42.7012 12.2241 42.5732 12.4161C42.4612 12.5761 42.2692 12.8161 41.9972 13.1361C41.7412 13.4561 41.4292 13.8081 41.0612 14.1921C40.7092 14.5761 40.3172 14.9761 39.8852 15.3921C39.4692 15.8081 39.0452 16.1921 38.6132 16.5441C38.1812 16.8961 37.7492 17.2081 37.3172 17.4801C36.9012 17.7361 36.5252 17.8961 36.1892 17.9601C35.7092 18.0561 35.3172 18.0241 35.0132 17.8641C34.7092 17.7041 34.5252 17.4481 34.4612 17.0961C34.4132 16.7281 34.4932 16.2641 34.7012 15.7041C34.9252 15.1441 35.3172 14.5041 35.8772 13.7841C36.5492 12.9361 37.0372 12.3201 37.3412 11.9361C37.6612 11.5361 37.7332 11.2961 37.5572 11.2161C37.4132 11.1361 37.1092 11.2481 36.6452 11.5521C36.1972 11.8561 35.6852 12.2641 35.1092 12.7761C34.5332 13.2721 33.9492 13.8321 33.3572 14.4561C32.7812 15.0641 32.3012 15.6401 31.9172 16.1841C31.8852 16.2481 31.8532 16.2881 31.8212 16.3041L31.1972 17.1921C31.0052 17.4321 30.7732 17.6321 30.5012 17.7921C30.2292 17.9361 29.9812 18.0081 29.7572 18.0081H29.0612C28.8372 18.0081 28.7092 17.9281 28.6772 17.7681C28.6452 17.6081 28.7172 17.4161 28.8932 17.1921L33.7172 10.3521C33.8932 10.1121 34.1172 9.92006 34.3892 9.77606C34.6612 9.63206 34.9092 9.56006 35.1332 9.56006H35.8292C36.0532 9.56006 36.1812 9.64006 36.2132 9.80006C36.2612 9.94406 36.1972 10.1281 36.0212 10.3521L35.1572 11.5761C35.7652 11.0641 36.3652 10.6321 36.9572 10.2801C37.5652 9.91206 38.1492 9.68806 38.7092 9.60806ZM41.9424 5.48006C42.3264 5.48006 42.9264 5.48006 43.7424 5.48006C44.5584 5.46406 45.4784 5.44806 46.5024 5.43206L47.5344 4.04006C47.7104 3.81606 47.9344 3.63206 48.2064 3.48806C48.4784 3.32806 48.7264 3.24806 48.9504 3.24806H49.6464C49.8704 3.24806 49.9984 3.32806 50.0304 3.48806C50.0784 3.63206 50.0144 3.81606 49.8384 4.04006C49.8064 4.07206 49.6944 4.21606 49.5024 4.47206C49.3264 4.71206 49.1024 5.01606 48.8304 5.38406C49.6304 5.38406 50.4224 5.38406 51.2064 5.38406C51.9904 5.36806 52.7104 5.36006 53.3664 5.36006C54.0384 5.34406 54.6144 5.33606 55.0944 5.33606C55.5904 5.32006 55.9504 5.31206 56.1744 5.31206C56.5744 5.29606 56.9504 5.36806 57.3024 5.52806C57.6704 5.68806 57.9504 5.87206 58.1424 6.08006C58.3344 6.27206 58.4064 6.45606 58.3584 6.63206C58.3104 6.80806 58.0864 6.89606 57.6864 6.89606C57.4464 6.89606 56.9744 6.91206 56.2704 6.94406C55.5824 6.97606 54.7584 7.01606 53.7984 7.06406C52.8544 7.11206 51.8224 7.16006 50.7024 7.20806C49.5984 7.25606 48.4944 7.30406 47.3904 7.35206C46.8944 8.04006 46.3744 8.76006 45.8304 9.51206C45.2864 10.2641 44.7744 10.9841 44.2944 11.6721C43.8144 12.3441 43.3904 12.9441 43.0224 13.4721C42.6704 14.0001 42.4224 14.3761 42.2784 14.6001C41.9904 15.0801 41.8304 15.4321 41.7984 15.6561C41.7664 15.8641 41.8064 15.9841 41.9184 16.0161C42.0784 16.0641 42.3424 15.9601 42.7104 15.7041C43.0944 15.4481 43.5104 15.1121 43.9584 14.6961C44.4224 14.2801 44.8864 13.8321 45.3504 13.3521C45.8144 12.8721 46.2064 12.4321 46.5264 12.0321C46.7504 11.7761 46.9424 11.6161 47.1024 11.5521C47.2624 11.4721 47.3744 11.4721 47.4384 11.5521C47.5184 11.6161 47.5424 11.7281 47.5104 11.8881C47.4944 12.0481 47.4304 12.2241 47.3184 12.4161C47.2064 12.5761 47.0144 12.8161 46.7424 13.1361C46.4864 13.4561 46.1744 13.8081 45.8064 14.1921C45.4544 14.5761 45.0624 14.9761 44.6304 15.3921C44.2144 15.8081 43.7824 16.1921 43.3344 16.5441C42.9024 16.8961 42.4784 17.2081 42.0624 17.4801C41.6464 17.7361 41.2624 17.8961 40.9104 17.9601C40.4304 18.0561 40.0624 18.0321 39.8064 17.8881C39.5504 17.7441 39.3904 17.5201 39.3264 17.2161C39.2464 16.9121 39.2544 16.5601 39.3504 16.1601C39.4464 15.7441 39.6144 15.3201 39.8544 14.8881C39.9664 14.6961 40.1984 14.3361 40.5504 13.8081C40.9184 13.2641 41.3504 12.6481 41.8464 11.9601C42.3424 11.2561 42.8704 10.5121 43.4304 9.72806C43.9904 8.92806 44.5264 8.16806 45.0384 7.44806C43.9504 7.49606 42.9984 7.53606 42.1824 7.56806C41.3824 7.60006 40.8544 7.61606 40.5984 7.61606C40.1824 7.63206 39.9504 7.52806 39.9024 7.30406C39.8544 7.08006 39.9184 6.84006 40.0944 6.58406C40.2704 6.31206 40.5264 6.06406 40.8624 5.84006C41.2144 5.60006 41.5744 5.48006 41.9424 5.48006ZM47.9728 16.6881C47.9728 17.0561 47.8448 17.3681 47.5888 17.6241C47.3488 17.8801 47.0448 18.0081 46.6768 18.0081C46.3088 18.0081 45.9968 17.8801 45.7408 17.6241C45.4848 17.3681 45.3568 17.0561 45.3568 16.6881C45.3568 16.3201 45.4848 16.0161 45.7408 15.7761C45.9968 15.5201 46.3088 15.3921 46.6768 15.3921C47.0448 15.3921 47.3488 15.5201 47.5888 15.7761C47.8448 16.0161 47.9728 16.3201 47.9728 16.6881ZM55.0504 16.1841C55.2904 16.2161 55.6184 16.0881 56.0344 15.8001C56.4504 15.5121 56.8904 15.1601 57.3544 14.7441C57.8184 14.3121 58.2744 13.8561 58.7224 13.3761C59.1704 12.8801 59.5624 12.4321 59.8984 12.0321C60.1064 11.7761 60.2824 11.6161 60.4264 11.5521C60.5864 11.4721 60.6984 11.4721 60.7624 11.5521C60.8424 11.6161 60.8744 11.7281 60.8584 11.8881C60.8424 12.0481 60.7704 12.2241 60.6424 12.4161C60.5304 12.5761 60.3464 12.8241 60.0904 13.1601C59.8344 13.4801 59.5224 13.8401 59.1544 14.2401C58.8024 14.6401 58.4104 15.0561 57.9784 15.4881C57.5624 15.9041 57.1384 16.2881 56.7064 16.6401C56.2744 16.9921 55.8424 17.2961 55.4104 17.5521C54.9944 17.7921 54.6104 17.9281 54.2584 17.9601C53.8424 18.0081 53.4744 17.9041 53.1544 17.6481C52.8504 17.3921 52.5864 17.0641 52.3624 16.6641C52.1384 16.2481 51.9544 15.8081 51.8104 15.3441C51.6824 14.8641 51.5864 14.4321 51.5224 14.0481L49.3144 17.1921C49.1224 17.4321 48.8904 17.6321 48.6184 17.7921C48.3624 17.9361 48.1224 18.0081 47.8984 18.0081H47.2024C46.9784 18.0081 46.8504 17.9281 46.8184 17.7681C46.7704 17.6081 46.8344 17.4161 47.0104 17.1921L57.1624 2.69606C57.3384 2.45606 57.5624 2.26406 57.8344 2.12006C58.1064 1.96006 58.3544 1.88006 58.5784 1.88006H59.2744C59.4984 1.88006 59.6264 1.96006 59.6584 2.12006C59.7064 2.28006 59.6424 2.47206 59.4664 2.69606L52.5544 12.5601C53.0344 12.4801 53.4824 12.3201 53.8984 12.0801C54.3304 11.8241 54.7144 11.5601 55.0504 11.2881C55.4024 11.0001 55.6984 10.7281 55.9384 10.4721C56.1944 10.2161 56.3784 10.0401 56.4904 9.94406C56.6024 9.83206 56.7064 9.75206 56.8024 9.70406C56.9144 9.65606 57.0184 9.62406 57.1144 9.60806C57.2264 9.57606 57.3544 9.56006 57.4984 9.56006C57.6424 9.56006 57.8264 9.56006 58.0504 9.56006C58.2584 9.56006 58.4664 9.56806 58.6744 9.58406C58.8824 9.60006 59.0344 9.64006 59.1304 9.70406C59.2264 9.76806 59.2424 9.88006 59.1784 10.0401C59.1304 10.1841 58.9464 10.3841 58.6264 10.6401C58.3064 10.8961 57.9384 11.1681 57.5224 11.4561C57.1064 11.7441 56.6744 12.0241 56.2264 12.2961C55.7944 12.5521 55.3544 12.7921 54.9064 13.0161C54.4744 13.2241 54.0664 13.3761 53.6824 13.4721C53.7144 13.7121 53.7624 13.9921 53.8264 14.3121C53.9064 14.6161 53.9944 14.9041 54.0904 15.1761C54.2024 15.4481 54.3384 15.6801 54.4984 15.8721C54.6584 16.0641 54.8424 16.1681 55.0504 16.1841ZM66.0362 10.0881C66.2922 10.3761 66.4362 10.7441 66.4682 11.1921C66.5002 11.6241 66.4202 12.1041 66.2282 12.6321C66.0362 13.1601 65.7482 13.7041 65.3642 14.2641C64.9802 14.8241 64.5082 15.3601 63.9482 15.8721C63.4042 16.3841 62.8362 16.8161 62.2442 17.1681C61.6682 17.5041 61.1162 17.7521 60.5882 17.9121C60.0602 18.0561 59.5722 18.1041 59.1242 18.0561C58.6762 18.0081 58.3242 17.8401 58.0682 17.5521C57.7962 17.2641 57.6442 16.9041 57.6122 16.4721C57.5962 16.0241 57.6842 15.5361 57.8762 15.0081C58.0682 14.4801 58.3482 13.9361 58.7162 13.3761C59.1002 12.8161 59.5722 12.2801 60.1322 11.7681C60.6762 11.2401 61.2362 10.8081 61.8122 10.4721C62.4042 10.1201 62.9642 9.87206 63.4922 9.72806C64.0362 9.56806 64.5242 9.52006 64.9562 9.58406C65.4042 9.63206 65.7642 9.80006 66.0362 10.0881ZM63.6122 14.3121C63.9162 13.9121 64.1722 13.5201 64.3802 13.1361C64.5882 12.7521 64.7402 12.3921 64.8362 12.0561C64.9322 11.7201 64.9642 11.4321 64.9322 11.1921C64.9162 10.9361 64.8362 10.7521 64.6922 10.6401C64.5322 10.5281 64.3242 10.4961 64.0682 10.5441C63.8282 10.5921 63.5562 10.7121 63.2522 10.9041C62.9642 11.0961 62.6522 11.3441 62.3162 11.6481C61.9962 11.9521 61.6842 12.3041 61.3802 12.7041C61.0762 13.1041 60.8202 13.4961 60.6122 13.8801C60.4202 14.2641 60.2762 14.6241 60.1802 14.9601C60.0842 15.2801 60.0442 15.5681 60.0602 15.8241C60.0922 16.0641 60.1802 16.2401 60.3242 16.3521C60.4842 16.4641 60.6842 16.4961 60.9242 16.4481C61.1802 16.4001 61.4522 16.2881 61.7402 16.1121C62.0442 15.9201 62.3562 15.6721 62.6762 15.3681C62.9962 15.0641 63.3082 14.7121 63.6122 14.3121Z" fill="#E0E0E0"/>
<path d="M71.3926 1.0305C70.8001 1.12028 70.3224 1.36089 69.9023 1.78464C69.5503 2.14016 69.3959 2.38077 69.2523 2.8117C69.1589 3.08463 69.1266 3.31805 68.947 5.11721C68.7208 7.38681 68.7172 7.54482 68.886 8.04399C69.026 8.4462 69.1805 8.70476 69.4713 9.01359C69.7371 9.29729 69.9956 9.48044 70.3332 9.62768C70.4625 9.68514 70.5774 9.739 70.5918 9.75337C70.6061 9.76414 70.0495 9.92574 69.3528 10.1125C68.6562 10.2956 68.0026 10.4896 67.902 10.5362C67.7979 10.5829 67.6255 10.705 67.5178 10.802C66.9683 11.3047 66.839 12.1451 67.2125 12.7951C67.3669 13.068 67.6901 13.3517 67.9846 13.4738C68.2001 13.5636 68.2791 13.5779 68.5915 13.5779C68.9039 13.5779 69.0189 13.56 69.4893 13.4271C69.7874 13.3445 70.1573 13.2404 70.3153 13.2009C70.4733 13.1578 70.7139 13.0931 70.8467 13.0536C70.9832 13.0141 71.1017 12.989 71.1089 12.9962C71.1161 13.0069 71.0586 13.244 70.9832 13.5312C70.4876 15.3555 70.3009 16.081 70.2793 16.239C70.2003 16.8495 70.581 17.5425 71.1484 17.8262C71.7804 18.1423 72.4735 18.0417 72.9907 17.5605C73.2815 17.2912 73.3713 17.0865 73.6442 16.0666C73.7663 15.5997 73.8777 15.2155 73.892 15.2155C73.9028 15.2155 73.9315 15.3017 73.9567 15.4058C74.1362 16.1097 74.402 17.0398 74.4666 17.1619C74.6246 17.4743 74.9694 17.7688 75.3285 17.9017C76.2873 18.2572 77.3216 17.6539 77.4832 16.6412C77.5299 16.3611 77.5047 16.1743 77.3467 15.5926C77.2749 15.334 77.1995 15.0431 77.1743 14.9462C77.1169 14.7199 76.9373 14.0412 76.7793 13.4558C76.7111 13.2116 76.6644 13.0033 76.6716 12.9962C76.6788 12.9854 77.1779 13.1147 77.774 13.2799C78.3738 13.4415 78.9519 13.5815 79.0597 13.5923C79.8533 13.6533 80.6003 13.0859 80.7475 12.3067C80.8229 11.9081 80.7583 11.513 80.5644 11.1683C80.4423 10.9528 80.1191 10.6512 79.9036 10.547C79.7707 10.4824 78.8514 10.2238 77.616 9.89701C77.3647 9.83237 77.1671 9.76773 77.1779 9.75337C77.1851 9.739 77.2749 9.6995 77.3754 9.66718C77.8028 9.52354 78.3917 9.01 78.6754 8.53238C78.8658 8.20918 78.9914 7.79261 79.013 7.40477C79.0345 6.97383 78.6611 3.23546 78.5605 2.91585C78.2804 2.01088 77.6376 1.37525 76.7183 1.09514C76.4597 1.01614 76.4274 1.01614 74.0141 1.00895C72.671 1.00536 71.4896 1.01254 71.3926 1.0305ZM76.6716 2.25149C77.142 2.48491 77.476 2.93021 77.5514 3.42579C77.6196 3.88186 77.9213 7.04565 77.9213 7.27908C77.9105 7.96857 77.3754 8.59343 76.6608 8.74785C76.5279 8.77658 75.6732 8.78735 73.8777 8.78735C71.0838 8.78735 71.0838 8.78735 70.6923 8.59702C70.4876 8.49647 70.1177 8.12658 70.0172 7.92189C69.9741 7.8357 69.9166 7.66692 69.8879 7.552C69.834 7.34731 69.8376 7.26471 70.01 5.50506C70.2147 3.3791 70.2363 3.23187 70.3368 3.03076C70.5451 2.61778 70.8396 2.35204 71.2669 2.18685C71.4608 2.11143 71.4967 2.11143 73.9423 2.11862L76.4202 2.1258L76.6716 2.25149ZM74.9299 9.90061C74.9299 9.96525 75.1956 10.2346 75.3788 10.3495C75.6122 10.4967 75.623 10.5039 77.6053 11.0318C78.5354 11.2796 79.3398 11.5023 79.3937 11.5238C79.5445 11.5813 79.6702 11.7895 79.6702 11.9763C79.6702 12.1738 79.5948 12.3174 79.4439 12.4108C79.2249 12.5473 79.3039 12.5616 77.0702 11.944C76.5495 11.8003 76.1042 11.6962 76.0072 11.6962C75.8025 11.6962 75.6337 11.8003 75.5368 11.9835C75.4326 12.1774 75.4434 12.7196 75.5619 13.1614C75.6122 13.3553 75.684 13.6282 75.7235 13.7683C75.7594 13.9119 75.8241 14.1561 75.8672 14.3069C75.9067 14.4613 76.0395 14.9497 76.1616 15.395C76.3125 15.9481 76.3843 16.2677 76.3843 16.4077C76.3843 16.5981 76.3735 16.6268 76.2514 16.7453C76.1473 16.853 76.0898 16.8818 75.9426 16.8961C75.7307 16.9141 75.5368 16.8207 75.4506 16.6555C75.4254 16.6017 75.2387 15.9445 75.0412 15.1939C74.8401 14.447 74.6426 13.7647 74.6031 13.6821C74.4882 13.4558 74.3158 13.384 73.8884 13.384C73.497 13.384 73.2995 13.4558 73.1954 13.6354C73.1343 13.7395 73.0338 14.0735 72.7788 15.0359C72.3299 16.7453 72.3443 16.7094 72.1467 16.8315C71.9744 16.9392 71.7014 16.9177 71.5686 16.792C71.3495 16.5909 71.3351 16.4221 71.4752 15.9158C71.5147 15.7757 71.6117 15.4202 71.6907 15.1257C71.7697 14.8276 71.9385 14.2136 72.0606 13.7611C72.2545 13.05 72.2868 12.8812 72.3012 12.5509C72.3155 12.2097 72.3083 12.1487 72.2365 12.005C72.1431 11.8075 71.9169 11.6782 71.705 11.7034C71.6332 11.7141 71.0479 11.8614 70.405 12.0337C69.7622 12.2097 69.1266 12.3785 68.9865 12.418C68.6562 12.5042 68.4838 12.5042 68.333 12.4108C68.0959 12.2636 68.0313 11.9332 68.1965 11.689C68.3042 11.531 68.4263 11.4879 69.7766 11.1395C69.9741 11.0893 70.2722 11.0067 70.441 10.96C70.6097 10.9133 70.9724 10.8163 71.249 10.7445C71.9923 10.547 72.2006 10.4752 72.3981 10.3495C72.5813 10.2346 72.847 9.96525 72.847 9.90061C72.847 9.87906 73.2205 9.86469 73.8884 9.86469C74.5564 9.86469 74.9299 9.87906 74.9299 9.90061Z" fill="#E0E0E0"/>
<path d="M71.9205 5.09219C71.5111 5.16761 71.231 5.52313 71.231 5.96843C71.231 6.48914 71.608 6.86621 72.1287 6.85903C72.4735 6.85903 72.7644 6.67588 72.9296 6.36704C73.0373 6.16235 73.0373 5.77451 72.9296 5.56981C72.7356 5.20352 72.3406 5.01678 71.9205 5.09219Z" fill="#E0E0E0"/>
<path d="M75.4793 5.09201C75.2818 5.12792 75.1525 5.19974 75.0161 5.34698C74.5205 5.87128 74.7755 6.69724 75.4793 6.84807C76.0359 6.96658 76.5459 6.54642 76.5459 5.96824C76.5459 5.38289 76.0647 4.98786 75.4793 5.09201Z" fill="#E0E0E0"/>
</svg>
